<svg width="96" height="90" viewBox="0 0 96 90" fill="none" xmlns="http://www.w3.org/2000/svg">
<path d="M72.0555 49.262C61.9447 69.4235 45.5404 79.1512 31.7115 78.1097C22.5626 77.4207 14.5266 71.7228 15.1808 56.8081C8.57623 74.0219 15.9897 89.1262 34.5957 87.0166C53.5459 85.1603 70.4695 66.0376 72.0555 49.262V49.262Z" fill="black"/>
<path d="M63.5723 26.0153C75.9773 44.8523 76.1996 63.9226 68.3832 75.378C63.212 82.9567 54.2594 87.0672 41.6701 79.0433C53.2754 93.3699 70.0629 94.5018 77.5388 77.3338C85.4064 59.9942 77.3075 35.7767 63.5723 26.0153V26.0153Z" fill="#A9D046"/>
<path d="M39.2453 21.74C61.7611 20.4155 78.3876 29.7582 84.4001 42.2551C88.3778 50.5228 87.4613 60.3312 74.2177 67.2219C92.4276 64.3347 101.802 50.3623 90.6716 35.3039C79.5889 19.8207 54.5664 14.7258 39.2453 21.74Z" fill="black"/>
<path d="M23.3617 40.6835C33.4725 20.522 49.8767 10.7944 63.7056 11.8358C72.8545 12.5249 80.8906 18.2228 80.2364 33.1375C86.8409 15.9236 79.4274 0.819313 60.8215 2.92892C41.8712 4.78523 24.9477 23.9079 23.3617 40.6835V40.6835Z" fill="#00B0EF"/>
<path d="M31.8601 63.9847C19.4551 45.1477 19.2328 26.0774 27.0492 14.622C32.2204 7.04328 41.173 2.93283 53.7623 10.9568C42.157 -3.36992 25.3695 -4.50176 17.8936 12.6662C10.026 30.0058 18.1249 54.2233 31.8601 63.9847V63.9847Z" fill="black"/>
<path d="M56.2229 68.1754C33.7071 69.4999 17.0806 60.1572 11.0681 47.6603C7.09038 39.3926 8.00691 29.5842 21.2505 22.6935C3.04058 25.5807 -6.33334 39.5531 4.79658 54.6115C7.12061 57.8583 10.0576 60.6483 13.3896 62.9656C13.7905 60.9533 15.1811 56.8068 15.1811 56.8068C15.0846 58.4032 15.1602 60.4775 15.3377 62.0522C15.4972 63.4673 15.725 64.4751 15.725 64.4751C15.725 64.4751 44.8464 73.3838 56.223 68.1754H56.2229Z" fill="#EC278F"/>
</svg>
